<svg xmlns="http://www.w3.org/2000/svg" xmlns:xlink="http://www.w3.org/1999/xlink" viewBox="0 0 50 50" version="1.1">
<g id="surface1">
<path style=" " d="M 22 0 L 22 9.3125 C 16.074219 10.515625 11.503906 15.203125 11.03125 21 L 10 21 C 9.96875 21 9.9375 21 9.90625 21 C 9.84375 21.003906 9.78125 21.015625 9.71875 21.03125 C 8.207031 21.179688 7 22.453125 7 24 C 7 25.492188 8.125 26.71875 9.5625 26.9375 C 9.59375 26.941406 9.625 26.964844 9.65625 26.96875 C 9.71875 26.984375 9.78125 26.996094 9.84375 27 C 9.898438 27.003906 9.945313 27 10 27 L 40 27 C 40.03125 27 40.0625 27 40.09375 27 C 40.105469 27 40.113281 27 40.125 27 C 40.179688 26.996094 40.226563 26.972656 40.28125 26.96875 C 41.792969 26.820313 43 25.546875 43 24 C 43 22.453125 41.792969 21.179688 40.28125 21.03125 C 40.207031 21.023438 40.136719 21 40.0625 21 C 40.042969 21 40.019531 21 40 21 L 38.96875 21 C 38.496094 15.203125 33.925781 10.515625 28 9.3125 L 28 0 L 26 0 L 26 9.03125 C 25.664063 9.007813 25.339844 9 25 9 C 24.660156 9 24.335938 9.007813 24 9.03125 L 24 0 Z M 25 11 C 31.308594 11 36.390625 15.417969 36.9375 21 L 13.0625 21 C 13.609375 15.417969 18.691406 11 25 11 Z M 9.96875 23 C 9.980469 23 9.988281 23 10 23 L 40 23 C 40.03125 23 40.0625 23 40.09375 23 C 40.613281 23.046875 41 23.46875 41 24 C 41 24.542969 40.597656 24.96875 40.0625 25 C 40.042969 25 40.019531 25 40 25 L 10 25 C 9.96875 25 9.9375 25.003906 9.90625 25 C 9.386719 24.953125 9 24.53125 9 24 C 9 23.445313 9.417969 23.015625 9.96875 23 Z M 17 30 C 15.894531 30 15 30.894531 15 32 C 15 33.105469 15.894531 34 17 34 C 18.105469 34 19 33.105469 19 32 C 19 30.894531 18.105469 30 17 30 Z M 25 30 C 23.894531 30 23 30.894531 23 32 C 23 33.105469 23.894531 34 25 34 C 26.105469 34 27 33.105469 27 32 C 27 30.894531 26.105469 30 25 30 Z M 33 30 C 31.894531 30 31 30.894531 31 32 C 31 33.105469 31.894531 34 33 34 C 34.105469 34 35 33.105469 35 32 C 35 30.894531 34.105469 30 33 30 Z M 13 38 C 11.894531 38 11 38.894531 11 40 C 11 41.105469 11.894531 42 13 42 C 14.105469 42 15 41.105469 15 40 C 15 38.894531 14.105469 38 13 38 Z M 21 38 C 19.894531 38 19 38.894531 19 40 C 19 41.105469 19.894531 42 21 42 C 22.105469 42 23 41.105469 23 40 C 23 38.894531 22.105469 38 21 38 Z M 29 38 C 27.894531 38 27 38.894531 27 40 C 27 41.105469 27.894531 42 29 42 C 30.105469 42 31 41.105469 31 40 C 31 38.894531 30.105469 38 29 38 Z M 37 38 C 35.894531 38 35 38.894531 35 40 C 35 41.105469 35.894531 42 37 42 C 38.105469 42 39 41.105469 39 40 C 39 38.894531 38.105469 38 37 38 Z M 9 46 C 7.894531 46 7 46.894531 7 48 C 7 49.105469 7.894531 50 9 50 C 10.105469 50 11 49.105469 11 48 C 11 46.894531 10.105469 46 9 46 Z M 17 46 C 15.894531 46 15 46.894531 15 48 C 15 49.105469 15.894531 50 17 50 C 18.105469 50 19 49.105469 19 48 C 19 46.894531 18.105469 46 17 46 Z M 25 46 C 23.894531 46 23 46.894531 23 48 C 23 49.105469 23.894531 50 25 50 C 26.105469 50 27 49.105469 27 48 C 27 46.894531 26.105469 46 25 46 Z M 33 46 C 31.894531 46 31 46.894531 31 48 C 31 49.105469 31.894531 50 33 50 C 34.105469 50 35 49.105469 35 48 C 35 46.894531 34.105469 46 33 46 Z M 41 46 C 39.894531 46 39 46.894531 39 48 C 39 49.105469 39.894531 50 41 50 C 42.105469 50 43 49.105469 43 48 C 43 46.894531 42.105469 46 41 46 Z "></path>
</g>
</svg>