<svg xmlns="http://www.w3.org/2000/svg" width="50" height="50" viewBox="0 0 50 50">
    <path style="text-indent:0;text-align:start;line-height:normal;text-transform:none;block-progression:tb;-inkscape-font-specification:Bitstream Vera Sans" d="M 24.90625 7.03125 C 24.71775 7.01788 24.537016 7.0368841 24.34375 7.0625 L 20.6875 7.5625 C 19.140797 7.7675032 18.045073 9.2038725 18.25 10.75 L 18.3125 11.25 L 11.90625 12.09375 C 9.8229623 12.370045 8.7563998 13.63831 7.875 14.8125 C 7.0017065 15.975891 6.6981724 16.514115 5.15625 16.71875 A 1.0098393 1.0098393 0 0 0 5.0625 16.75 A 1.0077822 1.0077822 0 0 0 4.3125 17.46875 A 1.0098393 1.0098393 0 0 0 4.3125 17.5 A 1.0077822 1.0077822 0 0 0 4.28125 17.5625 A 1.0098393 1.0098393 0 0 0 4.28125 17.59375 A 1.0077822 1.0077822 0 0 0 4.3125 17.96875 A 1.0098393 1.0098393 0 0 0 4.3125 18 A 1.0077822 1.0077822 0 0 0 4.34375 18.0625 A 1.0098393 1.0098393 0 0 0 4.375 18.125 A 1.0077822 1.0077822 0 0 0 4.375 18.15625 A 1.0098393 1.0098393 0 0 0 4.40625 18.1875 A 1.0077822 1.0077822 0 0 0 4.53125 18.40625 A 1.0098393 1.0098393 0 0 0 4.5625 18.40625 A 1.0077822 1.0077822 0 0 0 4.625 18.46875 A 1.0098393 1.0098393 0 0 0 4.65625 18.5 A 1.0077822 1.0077822 0 0 0 4.6875 18.53125 A 1.0098393 1.0098393 0 0 0 4.71875 18.5625 A 1.0077822 1.0077822 0 0 0 4.78125 18.59375 A 1.0098393 1.0098393 0 0 0 4.8125 18.59375 A 1.0077822 1.0077822 0 0 0 4.875 18.625 A 1.0098393 1.0098393 0 0 0 4.90625 18.65625 A 1.0077822 1.0077822 0 0 0 4.96875 18.6875 A 1.0098393 1.0098393 0 0 0 5 18.6875 A 1.0077822 1.0077822 0 0 0 5.0625 18.6875 A 1.0098393 1.0098393 0 0 0 5.09375 18.71875 A 1.0077822 1.0077822 0 0 0 5.15625 18.71875 A 1.0098393 1.0098393 0 0 0 5.1875 18.71875 A 1.0077822 1.0077822 0 0 0 5.25 18.71875 A 1.0098393 1.0098393 0 0 0 5.28125 18.71875 A 1.0077822 1.0077822 0 0 0 5.375 18.71875 A 1.0098393 1.0098393 0 0 0 5.40625 18.71875 C 5.4166784 18.717366 5.427122 18.720181 5.4375 18.71875 L 42.03125 13.84375 A 1.0001 1.0001 0 0 0 42.21875 13.8125 A 1.0001 1.0001 0 0 0 42.40625 13.75 A 1.0001 1.0001 0 0 0 42.8125 13.46875 A 1.0001 1.0001 0 0 0 42.96875 12.59375 A 1.0001 1.0001 0 0 0 42.96875 12.53125 A 1.0001 1.0001 0 0 0 42.9375 12.5 A 1.0001 1.0001 0 0 0 42.90625 12.40625 A 1.0001 1.0001 0 0 0 42.78125 12.21875 A 1.0001 1.0001 0 0 0 42.78125 12.1875 A 1.0001 1.0001 0 0 0 42.5625 12.03125 A 1.0001 1.0001 0 0 0 42.53125 12 A 1.0001 1.0001 0 0 0 42.40625 11.9375 A 1.0001 1.0001 0 0 0 42.375 11.90625 A 1.0001 1.0001 0 0 0 42.09375 11.84375 A 1.0001 1.0001 0 0 0 42.0625 11.84375 A 1.0001 1.0001 0 0 0 42 11.84375 A 1.0001 1.0001 0 0 0 41.96875 11.84375 A 1.0001 1.0001 0 0 0 41.78125 11.875 A 1.0001 1.0001 0 0 0 41.75 11.875 C 40.209331 12.079581 39.771327 11.614006 38.625 10.71875 C 37.467553 9.8137999 36.114038 8.9112712 34.03125 9.1875 L 27.625 10.03125 L 27.5625 9.5 C 27.383122 8.1466347 26.225749 7.1248397 24.90625 7.03125 z M 24.625 9.0625 C 25.100872 8.999427 25.499503 9.3059532 25.5625 9.78125 L 25.625 10.28125 L 20.28125 11 L 20.21875 10.5 C 20.15568 10.024128 20.493453 9.5942468 20.96875 9.53125 L 24.625 9.0625 z M 34.8125 11.125 C 35.922564 11.094018 36.413516 11.536331 37.40625 12.3125 C 37.457412 12.352456 37.510435 12.39756 37.5625 12.4375 L 9.34375 16.15625 C 9.3697356 16.122176 9.4119045 16.096456 9.4375 16.0625 L 9.46875 16 C 10.33335 14.84819 10.696788 14.291455 12.1875 14.09375 L 19.09375 13.1875 A 1.0001 1.0001 0 0 0 20.0625 13.03125 L 26.4375 12.1875 A 1.0001 1.0001 0 0 0 27.34375 12.0625 L 34.28125 11.15625 C 34.467652 11.131529 34.653919 11.129426 34.8125 11.125 z M 4.8125 21 A 1.001098 1.001098 0 0 0 5 23 L 5 30.9375 C 3.5754377 30.774879 2.8862899 30.281059 2.5 29.84375 C 2.0316996 29.313599 2 28.90625 2 28.90625 A 1.0001 1.0001 0 0 0 0.78125 28 A 1.0001 1.0001 0 0 0 0 29.09375 C 0 29.09375 0.14330041 30.186401 1 31.15625 C 1.7379691 31.991687 3.022658 32.772963 5 32.96875 L 5 45.1875 C 5 47.826757 7.1732427 50 9.8125 50 L 40.1875 50 C 42.826757 50 45 47.826757 45 45.1875 L 45 32.96875 C 46.977342 32.772963 48.262031 31.991687 49 31.15625 C 49.8567 30.186401 50 29.09375 50 29.09375 A 1.0001 1.0001 0 0 0 48.78125 28 A 1.0001 1.0001 0 0 0 48 28.90625 C 48 28.90625 47.9683 29.313599 47.5 29.84375 C 47.11371 30.281059 46.424562 30.774879 45 30.9375 L 45 23 A 1.0001 1.0001 0 1 0 45 21 L 6 21 L 5 21 A 1.0001 1.0001 0 0 0 4.90625 21 A 1.001098 1.001098 0 0 0 4.8125 21 z M 7 23 L 43 23 L 43 31.8125 A 1.0001 1.0001 0 0 0 43 32.21875 L 43 45.1875 C 43 46.746243 41.746243 48 40.1875 48 L 9.8125 48 C 8.2537573 48 7 46.746243 7 45.1875 L 7 32.1875 A 1.0001 1.0001 0 0 0 7 31.78125 L 7 23 z" color="#000" overflow="visible" enable-background="accumulate" font-family="Bitstream Vera Sans"></path>
</svg>