<svg xmlns="http://www.w3.org/2000/svg" xmlns:xlink="http://www.w3.org/1999/xlink" viewBox="0 0 50 50" version="1.1">
<g id="surface1">
<path style=" " d="M 24.96875 2 C 24.714844 2.007813 24.472656 2.113281 24.292969 2.292969 L 18.585938 8 L 16 8 C 14.90625 8 14 8.90625 14 10 L 14 15 C 14 16.09375 14.90625 17 16 17 L 18.585938 17 L 24.292969 22.707031 C 24.578125 22.992188 25.007813 23.078125 25.382813 22.921875 C 25.757813 22.769531 26 22.40625 26 22 L 26 3 C 26 2.730469 25.890625 2.472656 25.695313 2.28125 C 25.503906 2.09375 25.242188 1.992188 24.96875 2 Z M 24 5.414063 L 24 19.585938 L 20 15.585938 L 20 9.414063 Z M 32.621094 5.480469 L 31.179688 6.921875 C 32.871094 7.984375 34 9.859375 34 12 C 34 14.140625 32.871094 16.015625 31.179688 17.078125 L 32.621094 18.519531 C 34.660156 17.070313 36 14.691406 36 12 C 36 9.308594 34.660156 6.933594 32.621094 5.480469 Z M 29.703125 8.398438 L 28.09375 10.011719 C 29.152344 10.058594 30 10.929688 30 12 C 30 13.070313 29.152344 13.941406 28.09375 13.988281 L 29.703125 15.605469 C 31.058594 14.960938 32 13.59375 32 12 C 32 10.40625 31.058594 9.039063 29.703125 8.398438 Z M 16 10 L 18 10 L 18 15 L 16 15 Z M 3 26 C 1.355469 26 0 27.355469 0 29 C 0 29.265625 0.105469 29.519531 0.296875 29.707031 C 0.632813 30.925781 1.5625 31.914063 2.851563 31.984375 C 2.902344 31.996094 2.949219 32 3 32 C 4.117188 32 5 32.882813 5 34 L 5 36 C 5 39.382813 6.539063 42.410156 8.953125 44.433594 C 8.757813 45.335938 7.96875 46 7 46 C 6.640625 45.996094 6.304688 46.183594 6.121094 46.496094 C 5.941406 46.808594 5.941406 47.191406 6.121094 47.503906 C 6.304688 47.816406 6.640625 48.003906 7 48 C 8.625 48 10.03125 47.011719 10.65625 45.605469 C 12.238281 46.492188 14.058594 47 16 47 L 34 47 C 35.941406 47 37.761719 46.492188 39.34375 45.605469 C 39.96875 47.011719 41.375 48 43 48 C 43.359375 48.003906 43.695313 47.816406 43.878906 47.503906 C 44.058594 47.191406 44.058594 46.808594 43.878906 46.496094 C 43.695313 46.183594 43.359375 45.996094 43 46 C 42.03125 46 41.242188 45.335938 41.046875 44.433594 C 43.460938 42.410156 45 39.382813 45 36 L 45 34 C 45 32.882813 45.882813 32 47 32 C 47.074219 32 47.148438 31.992188 47.222656 31.980469 C 48.472656 31.871094 49.371094 30.902344 49.703125 29.707031 C 49.894531 29.519531 50 29.265625 50 29 C 50 27.355469 48.644531 26 47 26 Z M 3 28 L 47 28 C 47.566406 28 48 28.433594 48 29 C 48 29.566406 47.566406 30 47 30 L 3 30 C 2.433594 30 2 29.566406 2 29 C 2 28.433594 2.433594 28 3 28 Z M 6.4375 32 L 43.5625 32 C 43.214844 32.589844 43 33.269531 43 34 L 43 36 C 43 38.910156 41.625 41.480469 39.496094 43.125 C 39.429688 43.164063 39.371094 43.207031 39.316406 43.257813 C 37.828125 44.347656 35.992188 45 34 45 L 16 45 C 14.007813 45 12.175781 44.351563 10.6875 43.261719 C 10.632813 43.207031 10.570313 43.160156 10.503906 43.125 C 8.375 41.480469 7 38.90625 7 36 L 7 34 C 7 33.265625 6.789063 32.585938 6.4375 32 Z "></path>
</g>
</svg>